<svg xmlns="http://www.w3.org/2000/svg" viewBox="0 0 49.18 67.6">
  <title>logo</title>
  <g id="Layer_2" data-name="Layer 2">
    <g id="Layer_1-2" data-name="Layer 1">
      <path d="M44.86,4.56Q40.54,0,32.19,0H14.62V0l-.47,0H0V67.6H13.2c.49,0,1,0,1.42,0v0H31.33q8.64,0,13.25-4.51t4.6-14V17.47Q49.18,9.12,44.86,4.56ZM22,51.08A8.94,8.94,0,0,1,21,54.69a5.94,5.94,0,0,1-2.51,2.37,10.23,10.23,0,0,1-4.61.86H9.68V36.27H14a12.24,12.24,0,0,1,4.27.62,5.44,5.44,0,0,1,2.56,1.94,8.19,8.19,0,0,1,1.14,3.23,30.51,30.51,0,0,1,.29,4.46C22.22,48.17,22.15,49.69,22,51.08ZM20.56,25.3c-1.11,1.62-3.28,2.42-6.51,2.42H9.68V9.12h4q4.84,0,6.7,2.27t1.85,6.84C22.22,21.33,21.66,23.69,20.56,25.3ZM39.5,50q0,4.37-1.71,6.41t-5.79,2H29.73a24.52,24.52,0,0,0,1.6-9.31V45.39a19,19,0,0,0-1.61-8.55,10.53,10.53,0,0,0-5-4.75,13.25,13.25,0,0,0,4.93-4.55,11.34,11.34,0,0,0,1.29-3.33,21.84,21.84,0,0,0,.42-4.65V17.09a22.82,22.82,0,0,0-.9-6.41,15.13,15.13,0,0,0-.56-1.56H32c2.85,0,4.81.72,5.88,2.18a10.2,10.2,0,0,1,1.62,6.17Z"/>
    </g>
  </g>
</svg>
